PathFileType	4	(X/Y/Z)	SUBJ11_0_static_RCNL2025.trc
DataRate	CameraRate	NumFrames	NumMarkers	Units	OrigDataRate	OrigDataStartFrame	OrigNumFrames
100	100	12	25	mm	100	91	120
Frame#	Time	R_Shoulder			L_Shoulder			C7			J_Notch			R_Elbow			L_Elbow			R_Wrist			L_Wrist			R_Asis			L_Asis			Sacral			Thoracic			Sternum			R_Thigh_Lateral			R_Knee_Lateral			R_Shank_Lateral			R_Ankle_Lateral			R_Heel			R_Toe			L_Thigh_Lateral			L_Knee_Lateral			L_Shank_Lateral			L_Ankle_Lateral			L_Heel			L_Toe		
		X1	Y1	Z1	X2	Y2	Z2	X3	Y3	Z3	X4	Y4	Z4	X5	Y5	Z5	X6	Y6	Z6	X7	Y7	Z7	X8	Y8	Z8	X9	Y9	Z9	X10	Y10	Z10	X11	Y11	Z11	X12	Y12	Z12	X13	Y13	Z13	X14	Y14	Z14	X15	Y15	Z15	X16	Y16	Z16	X17	Y17	Z17	X18	Y18	Z18	X19	Y19	Z19	X20	Y20	Z20	X21	Y21	Z21	X22	Y22	Z22	X23	Y23	Z23	X24	Y24	Z24	X25	Y25	Z25
91	0.90000000	-331.913147	1316.552734	16.531704	-338.271698	1357.945801	-419.429749	-400.437958	1423.188354	-208.951965	-268.398712	1319.312744	-215.518600	-389.320496	1052.787354	128.141220	-341.691193	1076.446777	-546.580933	-323.423035	802.011688	145.969940	-269.193924	823.815735	-574.694580	-254.702515	904.986572	-105.742569	-274.328339	917.309753	-355.854675	-446.946716	947.444214	-206.281021	-468.414612	1204.332520	-207.365982	-218.699249	1166.178345	-228.710114	-317.262787	576.133240	-6.701709	-372.578094	460.549469	-83.402596	-389.052795	246.445984	-19.805685	-409.186493	64.232536	-82.068115	-451.173370	54.457909	-136.616684	-271.899078	43.041565	-97.138474	-368.178833	584.882141	-425.122955	-366.437378	478.097260	-373.556702	-412.352051	240.077347	-415.707184	-409.190948	64.194618	-361.242706	-452.918884	62.363041	-298.754822	-249.168182	64.489967	-348.791779
92	0.91000000	-331.710724	1316.532959	16.419304	-338.104340	1357.948364	-419.089172	-400.334869	1423.143311	-208.653687	-268.534058	1319.005615	-215.773987	-389.146057	1052.766846	128.264465	-341.797333	1076.411743	-546.524048	-323.180908	802.181732	146.050549	-269.412354	823.737549	-574.741272	-254.734833	904.982971	-105.780266	-274.355804	917.277771	-355.839264	-446.943787	947.440002	-206.287079	-468.354950	1204.307983	-207.300797	-218.675995	1166.320923	-228.747223	-317.108002	576.072876	-6.690162	-372.807587	460.601532	-83.443184	-388.959381	246.258514	-19.937469	-409.370117	64.533676	-81.805603	-451.119446	54.457886	-136.606491	-272.026398	43.338657	-97.056091	-368.194489	584.848755	-425.101288	-366.377014	478.176575	-373.561646	-412.246735	240.027130	-415.657928	-409.083893	64.133514	-361.271820	-452.889771	62.346729	-298.742249	-249.080917	64.451477	-348.900146
93	0.92000000	-331.610504	1316.593018	16.375559	-338.279114	1357.867188	-419.183380	-400.224121	1423.094727	-208.677521	-268.744751	1319.218506	-215.655472	-388.897797	1052.656494	128.200912	-341.872314	1076.268677	-546.478455	-323.133820	802.265350	146.170765	-269.542404	823.735840	-574.892548	-254.746445	905.017334	-105.790375	-274.300507	917.288757	-355.786285	-446.881226	947.412048	-206.218582	-468.259369	1204.306641	-207.274414	-218.583664	1166.250000	-228.727219	-317.081146	576.108643	-6.655852	-372.919037	460.679260	-83.517235	-388.803406	246.127853	-19.953333	-409.273071	64.319633	-81.871109	-451.185089	54.447838	-136.624680	-271.814514	43.135426	-97.096291	-368.197845	584.891052	-425.078125	-366.448212	478.103943	-373.536896	-412.321838	240.075363	-415.719177	-409.082520	64.090034	-361.331696	-452.920685	62.367409	-298.751251	-249.028183	64.565735	-348.822540
94	0.93000000	-331.543732	1316.549927	16.484541	-338.365631	1357.830078	-419.127533	-400.234650	1423.140991	-208.693710	-268.746429	1319.261841	-215.572418	-389.170837	1052.921387	128.606186	-341.949432	1076.204346	-546.363525	-323.177002	802.338226	146.432774	-269.780655	823.577606	-574.798889	-254.732147	904.992249	-105.786438	-274.291138	917.289368	-355.808380	-446.832886	947.438049	-206.224442	-468.233307	1204.213135	-207.140610	-218.496445	1166.202271	-228.667053	-317.209259	576.316589	-6.603132	-372.882416	460.620300	-83.443054	-388.926575	246.381195	-19.747280	-409.150299	64.256042	-81.961624	-451.004974	54.430206	-136.561920	-271.545776	42.781776	-97.210808	-368.195007	584.810852	-425.094543	-366.422760	478.149719	-373.597961	-412.253387	240.032166	-415.654144	-409.092590	64.123741	-361.275085	-452.926758	62.351635	-298.755951	-249.104721	64.520485	-348.808533
95	0.94000000	-331.531952	1316.537720	16.502592	-338.493591	1357.796143	-419.253204	-400.243622	1423.147705	-208.699905	-268.688202	1318.888428	-215.746521	-389.208008	1053.090332	128.721207	-342.011230	1076.111328	-546.258362	-323.128525	802.262390	146.323811	-269.862503	823.485657	-574.678497	-254.625977	904.938538	-105.882935	-274.325867	917.237427	-355.828369	-446.905365	947.448853	-206.184357	-468.164429	1204.258545	-207.086456	-218.459183	1166.207886	-228.681656	-317.060974	576.177856	-6.699348	-372.769470	460.583649	-83.393639	-387.772400	245.178757	-21.026342	-409.304749	64.346954	-81.813271	-451.101166	54.470657	-136.489975	-271.470123	42.568432	-97.309502	-368.205444	584.883484	-425.048279	-366.408081	478.150696	-373.634888	-412.375885	240.007324	-415.755554	-409.116028	64.149887	-361.283569	-452.817230	62.250347	-298.816681	-249.218597	64.537071	-348.765015
96	0.95000000	-331.383087	1316.541870	16.459370	-338.510559	1357.853638	-419.189636	-400.244110	1423.146118	-208.698776	-268.693909	1318.963013	-215.685547	-389.105316	1053.138672	128.890625	-342.151245	1076.102783	-546.242493	-323.236481	802.302368	146.456490	-270.072647	822.649658	-574.539856	-254.457016	904.985779	-105.802071	-274.443298	917.470398	-355.836121	-446.850098	947.453735	-206.109146	-468.179932	1204.271851	-207.058395	-218.480179	1166.125488	-228.662643	-316.850861	576.119202	-6.724075	-372.695251	460.772400	-83.380341	-387.994202	245.565659	-20.300852	-409.416260	64.443436	-81.748886	-451.064392	54.497093	-136.539246	-271.682587	42.810669	-97.241417	-368.259338	584.793823	-425.008179	-366.480713	478.105042	-373.581085	-412.443359	240.069733	-415.827820	-409.164734	64.129013	-361.301239	-452.904846	62.333271	-298.764099	-249.251862	64.434410	-348.850403
97	0.96000000	-331.317780	1316.551758	16.453711	-338.516449	1357.751099	-419.187317	-400.165436	1423.061279	-208.608109	-268.628662	1319.074585	-215.646957	-388.666351	1052.856445	128.678055	-342.328735	1076.207642	-546.192566	-323.172653	802.299835	146.437695	-270.094467	822.416840	-574.489075	-254.291962	905.040222	-105.771873	-274.407928	917.472534	-355.832642	-446.861267	947.463318	-206.078400	-468.131836	1204.204102	-206.967026	-218.551498	1166.069702	-228.682800	-316.739563	576.022949	-6.810585	-372.560608	460.673706	-83.347679	-388.675598	246.216522	-19.808275	-409.413605	64.371124	-81.760872	-451.026886	54.433598	-136.589508	-272.069519	43.432064	-97.032829	-368.289185	584.821533	-425.026520	-366.501923	478.112549	-373.539856	-412.279236	240.057587	-415.690765	-409.255768	64.725693	-361.981659	-452.930328	62.354206	-298.753143	-249.351547	64.433197	-348.812653
98	0.97000000	-331.197052	1316.515259	16.482317	-338.549835	1357.693237	-419.065247	-400.152374	1423.049072	-208.580719	-268.519165	1318.967041	-215.697784	-388.448395	1052.776245	128.675583	-342.322968	1075.941528	-546.066223	-323.079910	802.280640	146.472801	-270.216385	822.476959	-574.414124	-254.262573	905.011841	-105.763939	-274.349457	917.336548	-355.866058	-446.800629	947.451416	-206.009125	-468.112396	1204.250244	-206.832993	-218.630295	1166.016357	-228.709045	-316.776703	576.036133	-6.814546	-372.497681	460.639862	-83.329826	-388.868378	246.325348	-19.754440	-409.075836	64.011467	-81.972412	-451.056915	54.432484	-136.578857	-272.125580	43.413475	-97.012764	-368.268982	584.798340	-425.010803	-366.501923	478.172882	-373.574707	-412.298279	240.040985	-415.659607	-409.143372	64.160706	-361.391357	-452.827148	62.260715	-298.813995	-249.275757	64.289276	-348.857758
99	0.98000000	-331.228088	1316.495239	16.561558	-338.523865	1357.732178	-419.064270	-400.156403	1423.052734	-208.587112	-268.456665	1318.967773	-215.631866	-388.703491	1053.043945	129.011307	-342.498291	1075.844360	-545.961304	-323.071823	802.337036	146.574436	-270.537872	823.067566	-574.333160	-254.226608	904.888733	-105.810326	-274.346283	917.305115	-355.873688	-446.739594	947.451416	-206.021439	-468.053406	1204.259521	-206.757706	-218.762695	1165.928467	-228.878479	-316.883148	576.131653	-6.709212	-372.506195	460.619171	-83.335579	-387.801758	245.541061	-20.737440	-408.844818	63.786472	-82.134430	-451.052979	54.484589	-136.415787	-271.952179	43.045406	-97.104614	-368.272827	584.740417	-424.983521	-366.437622	478.123657	-373.599335	-412.272491	240.049484	-415.638428	-409.096893	64.120018	-361.229431	-452.901306	62.325859	-298.768951	-249.165878	64.325539	-348.925568
100	0.99000000	-331.162750	1316.473267	16.631111	-338.470490	1357.647217	-419.059082	-400.153839	1423.019897	-208.608994	-268.378357	1318.891235	-215.631775	-388.617249	1053.110840	129.033051	-342.715271	1075.776123	-546.073364	-322.817947	802.340637	146.443932	-270.776199	823.138489	-574.171143	-254.260498	904.979736	-105.896271	-274.364868	917.353088	-355.874908	-446.718842	947.439514	-206.053101	-468.049469	1204.258057	-206.758057	-218.733154	1165.899048	-228.819839	-316.856567	576.086182	-6.768889	-372.551727	460.671875	-83.342575	-388.133453	245.736282	-20.161375	-409.060242	64.078773	-82.001083	-451.028320	54.435089	-136.572205	-271.860199	42.961617	-97.151810	-368.291351	584.827454	-425.026337	-366.319183	478.069366	-373.629761	-412.394958	240.018677	-415.707825	-409.099091	64.139305	-361.227661	-452.821625	62.254444	-298.814331	-249.065308	64.373016	-348.865112
101	1.00000000	-331.067566	1316.494507	16.536669	-338.453827	1357.653687	-419.037994	-400.163483	1423.074219	-208.582352	-268.500885	1318.723633	-215.810501	-388.448822	1053.087769	129.044449	-342.889954	1075.698853	-545.905151	-322.762558	802.401947	146.455585	-270.916687	823.004333	-574.036835	-254.210617	904.816772	-105.831940	-274.459595	917.413086	-355.890350	-446.736053	947.434509	-206.029022	-468.051514	1204.243408	-206.760513	-218.586243	1165.930786	-228.756042	-316.863586	576.074585	-6.742852	-372.574127	460.705017	-83.343292	-388.573578	245.923431	-20.030714	-409.443787	64.481400	-81.726990	-451.085754	54.474247	-136.547424	-272.012268	43.212597	-97.100113	-368.228058	584.876343	-424.949219	-366.323029	478.109741	-373.532776	-412.675446	240.077011	-416.011169	-409.106750	64.140877	-361.235077	-452.826080	62.280815	-298.699097	-249.112106	64.497681	-348.835754
102	1.01000000	-330.868958	1316.511230	16.482618	-338.545837	1357.630493	-418.987183	-400.021332	1423.105225	-208.564835	-268.746796	1318.680054	-215.901779	-388.389984	1053.102539	129.138794	-342.979889	1075.635986	-545.836609	-322.800491	802.295868	146.617210	-271.161087	823.000122	-573.748322	-254.144989	904.938232	-105.789749	-274.467346	917.294983	-355.899963	-446.721588	947.424194	-206.053345	-467.916687	1204.225952	-206.736557	-218.619614	1165.871216	-228.805664	-316.855499	576.073730	-6.749193	-372.521332	460.702332	-83.311119	-388.589417	246.117004	-19.768957	-409.569519	64.597710	-81.670624	-451.061707	54.478954	-136.548904	-272.063751	43.378422	-97.041138	-368.229797	584.788330	-424.874420	-366.360779	478.231476	-373.492676	-412.715302	240.082932	-416.052429	-409.124756	64.156395	-361.253571	-452.958374	62.420124	-298.703827	-249.041946	64.535980	-348.752075
